<svg width="185" height="61" viewBox="0 0 185 61" fill="none" xmlns="http://www.w3.org/2000/svg">
<g clip-path="url(#clip0)">
<path d="M49.0555 54.9492C49.0555 55.4299 48.9832 55.8726 48.8383 56.2771C48.6929 56.6827 48.478 57.0332 48.1915 57.3314C47.9051 57.6288 47.5479 57.8617 47.1204 58.0301C46.6929 58.1974 46.2005 58.2814 45.6429 58.2814C45.0778 58.2814 44.5819 58.1974 44.1544 58.0301C43.7265 57.8617 43.3697 57.6288 43.0833 57.3314C42.7972 57.0332 42.5815 56.6827 42.4365 56.2771C42.2912 55.8726 42.2189 55.4299 42.2189 54.9492V49.9672H44.0059V54.8804C44.0059 55.1321 44.0454 55.3654 44.1255 55.5791C44.2056 55.7929 44.3181 55.9781 44.4639 56.1341C44.6089 56.2915 44.7824 56.4131 44.9844 56.501C45.1868 56.5885 45.4061 56.6327 45.6429 56.6327C45.8797 56.6327 46.097 56.5885 46.2959 56.501C46.494 56.4131 46.6659 56.2915 46.8109 56.1341C46.9559 55.9781 47.0688 55.7929 47.1489 55.5791C47.229 55.3654 47.2689 55.1321 47.2689 54.8804V49.9672H49.0555V54.9492Z" fill="#BE1622"/>
<path d="M55.8789 52.0746C55.703 51.8609 55.4877 51.6964 55.2317 51.5819C54.9758 51.4674 54.68 51.4107 54.3443 51.4107C54.0082 51.4107 53.6972 51.4756 53.4111 51.6053C53.1247 51.735 52.8765 51.9164 52.6667 52.1489C52.4564 52.3818 52.2923 52.6585 52.1743 52.9793C52.0555 53.3001 51.9965 53.6471 51.9965 54.0211C51.9965 54.4033 52.0555 54.7526 52.1743 55.0696C52.2923 55.3865 52.4549 55.6612 52.6608 55.8937C52.8668 56.127 53.109 56.3083 53.3881 56.4377C53.6667 56.5678 53.9664 56.6327 54.2868 56.6327C54.6534 56.6327 54.9777 56.5565 55.2603 56.4037C55.5428 56.2509 55.7757 56.0371 55.959 55.7624L57.4478 56.873C57.1043 57.354 56.669 57.7089 56.1423 57.9379C55.6155 58.1669 55.0731 58.2814 54.5158 58.2814C53.8824 58.2814 53.2982 58.1821 52.764 57.984C52.2294 57.7855 51.7675 57.501 51.3779 57.1305C50.9887 56.7605 50.6854 56.3118 50.4678 55.7851C50.2501 55.2579 50.1415 54.6706 50.1415 54.0211C50.1415 53.3724 50.2501 52.7843 50.4678 52.2579C50.6854 51.7308 50.9887 51.2829 51.3779 50.9121C51.7675 50.542 52.2294 50.2579 52.764 50.059C53.2982 49.8605 53.8824 49.7612 54.5158 49.7612C54.7448 49.7612 54.9836 49.7823 55.2317 49.8241C55.4799 49.8667 55.7241 49.9336 55.9645 50.0246C56.2052 50.1161 56.4361 50.2388 56.6577 50.3912C56.8789 50.544 57.077 50.7311 57.2532 50.9523L55.8789 52.0746Z" fill="#BE1622"/>
<path d="M58.2778 49.9672H60.0645V56.426H63.374V58.0754H58.2778V49.9672Z" fill="#BE1622"/>
<path d="M67.2825 55.6362C67.1524 55.6362 66.9906 55.642 66.796 55.6534C66.601 55.6643 66.4138 55.6971 66.2349 55.7507C66.0551 55.8042 65.9027 55.8843 65.7765 55.991C65.6507 56.0981 65.5877 56.2466 65.5877 56.4377C65.5877 56.6436 65.6757 56.7968 65.8511 56.896C66.027 56.9953 66.2099 57.0445 66.401 57.0445C66.5686 57.0445 66.7308 57.0219 66.8875 56.9762C67.0442 56.9304 67.1833 56.8656 67.3056 56.7815C67.4275 56.6975 67.5248 56.5905 67.5975 56.4603C67.6702 56.3306 67.7062 56.1786 67.7062 56.0023V55.6362H67.2825ZM67.7062 57.3767H67.6835C67.4928 57.6745 67.2388 57.8886 66.9219 58.018C66.6049 58.1477 66.2712 58.213 65.9199 58.213C65.6604 58.213 65.4103 58.1766 65.1696 58.1036C64.9293 58.0317 64.7175 57.9226 64.5342 57.7772C64.3509 57.6323 64.206 57.4529 64.0993 57.2395C63.9922 57.0258 63.9387 56.7776 63.9387 56.4947C63.9387 56.1743 63.9977 55.9035 64.1161 55.6815C64.2345 55.4607 64.3947 55.2771 64.5971 55.1321C64.7995 54.9875 65.0305 54.8746 65.29 54.7944C65.5494 54.7143 65.8187 54.6549 66.0973 54.617C66.3759 54.5787 66.6546 54.5557 66.9332 54.5482C67.2118 54.5404 67.4697 54.5369 67.7062 54.5369C67.7062 54.2313 67.5975 53.9887 67.3802 53.8093C67.1622 53.6299 66.9047 53.5404 66.6069 53.5404C66.3244 53.5404 66.0668 53.5994 65.8339 53.7178C65.601 53.8366 65.3931 53.9988 65.2099 54.2044L64.2939 53.2657C64.6143 52.9676 64.9883 52.7448 65.4162 52.5955C65.8433 52.4467 66.2865 52.372 66.7444 52.372C67.2486 52.372 67.6624 52.4357 67.9871 52.5611C68.3115 52.687 68.5709 52.8726 68.7655 53.1168C68.9602 53.3611 69.0957 53.6604 69.1723 54.016C69.2485 54.3708 69.2868 54.7812 69.2868 55.247V58.0754H67.7062V57.3767Z" fill="#BE1622"/>
<path d="M70.4623 52.5096H72.1114V53.2657H72.1344C72.1876 53.1587 72.2642 53.052 72.3634 52.9449C72.4627 52.8378 72.5811 52.7429 72.7182 52.6585C72.8558 52.5744 73.0121 52.5057 73.188 52.4525C73.3638 52.399 73.5545 52.372 73.7608 52.372C74.1954 52.372 74.5471 52.4392 74.8144 52.5725C75.0809 52.7061 75.2892 52.8918 75.4384 53.1278C75.5869 53.3646 75.6881 53.6432 75.7413 53.9644C75.7952 54.2845 75.8218 54.6327 75.8218 55.0062V58.0754H74.1039V55.3501C74.1039 55.1891 74.0981 55.0234 74.0871 54.8515C74.0754 54.6799 74.041 54.5213 73.984 54.3763C73.9269 54.2313 73.8386 54.1133 73.7206 54.0211C73.6018 53.93 73.4326 53.8843 73.2106 53.8843C72.9894 53.8843 72.8101 53.9238 72.6725 54.0039C72.535 54.084 72.4302 54.1915 72.3576 54.3251C72.2849 54.4584 72.2372 54.6092 72.2145 54.7772C72.1915 54.9449 72.1801 55.1207 72.1801 55.3036V58.0754H70.4623V52.5096Z" fill="#BE1622"/>
<path d="M20.1559 17.1938C19.2446 17.1938 18.3884 17.5486 17.7225 18.2157L16.8593 19.1801L15.9742 18.1926C15.3302 17.5486 14.474 17.1938 13.5631 17.1938H0V39.501V42.5158C0 46.0969 2.81282 50.134 8.3603 54.5158C12.4232 57.7249 16.544 59.9554 16.585 59.9769C16.6706 60.0234 16.7651 60.0465 16.8593 60.0465C16.9531 60.0465 17.0469 60.0238 17.1321 59.9781C17.8093 59.6174 33.719 51.0305 33.719 42.4142V39.501V17.1938H20.1559Z" fill="#007FB0"/>
<path d="M1.15668 38.8366V42.5158C1.15668 44.0571 1.79325 45.7522 3.04882 47.5545C4.37746 49.4611 6.4056 51.4978 9.07774 53.6084C12.4591 56.2794 15.8898 58.2634 16.862 58.8085C17.8737 58.2493 21.4697 56.1954 24.9546 53.3908C29.932 49.3857 32.5627 45.5901 32.5627 42.4142V38.8366L16.8597 29.8156L1.15668 38.8366Z" fill="white"/>
<path d="M10.7652 27.975H10.0817V23.0922H10.0653L9.03207 23.9629L8.62488 23.4666L10.1712 22.2133H10.7652V27.975Z" fill="white"/>
<path d="M13.0828 23.6538C13.0828 23.9304 13.1708 24.1586 13.347 24.3376C13.5232 24.5166 13.7554 24.6061 14.043 24.6061C14.3302 24.6061 14.5623 24.5166 14.7386 24.3376C14.9148 24.1586 15.0035 23.9304 15.0035 23.6538C15.0035 23.3771 14.9148 23.1489 14.7386 22.9703C14.5623 22.7913 14.3302 22.7014 14.043 22.7014C13.7554 22.7014 13.5232 22.7913 13.347 22.9703C13.1708 23.1489 13.0828 23.3771 13.0828 23.6538ZM12.8875 26.3392C12.8875 26.5076 12.9172 26.662 12.9769 26.8034C13.0363 26.9437 13.1192 27.0649 13.2251 27.1653C13.331 27.2657 13.4529 27.3443 13.5912 27.4013C13.7296 27.4584 13.8804 27.4869 14.043 27.4869C14.2059 27.4869 14.3564 27.4584 14.4947 27.4013C14.6331 27.3443 14.755 27.2657 14.8609 27.1653C14.9664 27.0649 15.0492 26.9437 15.109 26.8034C15.1684 26.662 15.1985 26.5076 15.1985 26.3392C15.1985 26.1712 15.1684 26.0164 15.109 25.8757C15.0492 25.7343 14.9664 25.6139 14.8609 25.5135C14.755 25.4127 14.6331 25.3345 14.4947 25.2774C14.3564 25.2204 14.2059 25.1919 14.043 25.1919C13.8804 25.1919 13.7296 25.2204 13.5912 25.2774C13.4529 25.3345 13.331 25.4127 13.2251 25.5135C13.1192 25.6139 13.0363 25.7343 12.9769 25.8757C12.9172 26.0164 12.8875 26.1712 12.8875 26.3392ZM12.399 23.6213C12.399 23.3931 12.4408 23.1876 12.5252 23.0023C12.6092 22.8183 12.7245 22.6604 12.871 22.5307C13.0176 22.4005 13.1911 22.2989 13.3919 22.2259C13.5928 22.1524 13.8097 22.1157 14.043 22.1157C14.2763 22.1157 14.4932 22.1524 14.694 22.2259C14.8945 22.2989 15.0684 22.4005 15.2149 22.5307C15.3615 22.6604 15.4764 22.8183 15.5608 23.0023C15.6448 23.1876 15.687 23.3931 15.687 23.6213C15.687 23.7569 15.6651 23.8925 15.6217 24.0281C15.5783 24.1637 15.5158 24.2888 15.4345 24.4021C15.3533 24.5166 15.254 24.617 15.1375 24.7038C15.0207 24.7905 14.8894 24.8527 14.7429 24.8906V24.907C14.9164 24.9445 15.0739 25.009 15.2149 25.0985C15.3556 25.188 15.4752 25.2978 15.5729 25.4279C15.6706 25.5576 15.7464 25.7057 15.8007 25.8714C15.855 26.0371 15.8824 26.2091 15.8824 26.388C15.8824 26.6487 15.8347 26.8832 15.7397 27.0922C15.6448 27.3009 15.5147 27.4787 15.349 27.6252C15.1833 27.7718 14.9883 27.8828 14.7632 27.959C14.5381 28.0348 14.2978 28.0723 14.043 28.0723C13.7878 28.0723 13.5479 28.0348 13.3228 27.959C13.0977 27.8828 12.9023 27.7718 12.737 27.6252C12.5713 27.4787 12.4408 27.3009 12.3462 27.0922C12.2513 26.8832 12.204 26.6487 12.204 26.388C12.204 26.2091 12.2309 26.0371 12.2853 25.8714C12.3396 25.7057 12.4154 25.5576 12.5131 25.4279C12.6108 25.2978 12.73 25.188 12.871 25.0985C13.0121 25.009 13.1696 24.9445 13.3431 24.907V24.8906C13.1966 24.8527 13.0653 24.7905 12.9484 24.7038C12.8316 24.617 12.7327 24.5166 12.6514 24.4021C12.5701 24.2888 12.5076 24.1637 12.4642 24.0281C12.4209 23.8925 12.399 23.7569 12.399 23.6213Z" fill="white"/>
<path d="M16.7968 27.1938L18.9695 25.0778C19.1051 24.9476 19.2243 24.8269 19.3275 24.7159C19.4307 24.6049 19.5158 24.4963 19.5838 24.3904C19.6518 24.2845 19.7019 24.1747 19.7347 24.0606C19.7671 23.9468 19.7831 23.8195 19.7831 23.678C19.7831 23.5264 19.7562 23.3908 19.7019 23.2712C19.6475 23.152 19.5729 23.0504 19.4783 22.9664C19.383 22.882 19.272 22.8171 19.1446 22.771C19.0168 22.7249 18.88 22.7014 18.7335 22.7014C18.4404 22.7014 18.1989 22.7858 18.0094 22.9539C17.8195 23.1223 17.6972 23.3447 17.6432 23.6213L16.9027 23.5561C16.9406 23.3228 17.0125 23.1153 17.118 22.9336C17.2239 22.7519 17.3568 22.6014 17.517 22.4818C17.6768 22.3626 17.8574 22.2716 18.0582 22.2094C18.2587 22.1469 18.4756 22.1157 18.7093 22.1157C18.9477 22.1157 19.1731 22.1497 19.3845 22.2177C19.5963 22.2853 19.782 22.3841 19.9422 22.5143C20.102 22.6448 20.2294 22.8073 20.3244 23.0027C20.4193 23.1981 20.467 23.4232 20.467 23.678C20.467 23.9058 20.4357 24.1121 20.3732 24.2966C20.3107 24.481 20.2267 24.6506 20.1212 24.8054C20.0153 24.9601 19.8957 25.1063 19.7628 25.2446C19.63 25.3829 19.4904 25.5201 19.3439 25.6557L17.5698 27.3239V27.3404H20.5076V27.975H16.7968V27.1938Z" fill="white"/>
<path d="M22.2951 23.6538C22.2951 23.9304 22.3834 24.1586 22.5596 24.3376C22.7355 24.5166 22.9676 24.6061 23.2556 24.6061C23.5428 24.6061 23.7749 24.5166 23.9512 24.3376C24.127 24.1586 24.2157 23.9304 24.2157 23.6538C24.2157 23.3771 24.127 23.1489 23.9512 22.9703C23.7749 22.7913 23.5428 22.7014 23.2556 22.7014C22.9676 22.7014 22.7355 22.7913 22.5596 22.9703C22.3834 23.1489 22.2951 23.3771 22.2951 23.6538ZM22.0997 26.3392C22.0997 26.5076 22.1294 26.662 22.1892 26.8034C22.2489 26.9437 22.3318 27.0649 22.4373 27.1653C22.5432 27.2657 22.6651 27.3443 22.8035 27.4013C22.9418 27.4584 23.0926 27.4869 23.2556 27.4869C23.4182 27.4869 23.5686 27.4584 23.7069 27.4013C23.8453 27.3443 23.9672 27.2657 24.0731 27.1653C24.179 27.0649 24.2614 26.9437 24.3216 26.8034C24.381 26.662 24.4111 26.5076 24.4111 26.3392C24.4111 26.1712 24.381 26.0164 24.3216 25.8757C24.2614 25.7343 24.179 25.6139 24.0731 25.5135C23.9672 25.4127 23.8453 25.3345 23.7069 25.2774C23.5686 25.2204 23.4182 25.1919 23.2556 25.1919C23.0926 25.1919 22.9418 25.2204 22.8035 25.2774C22.6651 25.3345 22.5432 25.4127 22.4373 25.5135C22.3318 25.6139 22.2489 25.7343 22.1892 25.8757C22.1294 26.0164 22.0997 26.1712 22.0997 26.3392ZM21.6112 23.6213C21.6112 23.3931 21.6534 23.1876 21.7374 23.0023C21.8218 22.8183 21.9367 22.6604 22.0833 22.5307C22.2298 22.4005 22.4033 22.2989 22.6046 22.2259C22.805 22.1524 23.0219 22.1157 23.2556 22.1157C23.4885 22.1157 23.7054 22.1524 23.9066 22.2259C24.1071 22.2989 24.2806 22.4005 24.4271 22.5307C24.5737 22.6604 24.6886 22.8183 24.773 23.0023C24.857 23.1876 24.8992 23.3931 24.8992 23.6213C24.8992 23.7569 24.8773 23.8925 24.8343 24.0281C24.7906 24.1637 24.7284 24.2888 24.6471 24.4021C24.5655 24.5166 24.4666 24.617 24.3498 24.7038C24.2329 24.7905 24.1016 24.8527 23.9551 24.8906V24.907C24.1286 24.9445 24.2861 25.009 24.4271 25.0985C24.5682 25.188 24.6878 25.2978 24.7855 25.4279C24.8828 25.5576 24.9586 25.7057 25.0133 25.8714C25.0672 26.0371 25.0946 26.2091 25.0946 26.388C25.0946 26.6487 25.0469 26.8832 24.952 27.0922C24.857 27.3009 24.7269 27.4787 24.5616 27.6252C24.3959 27.7718 24.2005 27.8828 23.9754 27.959C23.7503 28.0348 23.5104 28.0723 23.2556 28.0723C23.0004 28.0723 22.7601 28.0348 22.535 27.959C22.3099 27.8828 22.1145 27.7718 21.9492 27.6252C21.7835 27.4787 21.6534 27.3009 21.5584 27.0922C21.4635 26.8832 21.4162 26.6487 21.4162 26.388C21.4162 26.2091 21.4432 26.0371 21.4975 25.8714C21.5518 25.7057 21.6276 25.5576 21.7253 25.4279C21.823 25.2978 21.9422 25.188 22.0833 25.0985C22.2243 25.009 22.3818 24.9445 22.5557 24.907V24.8906C22.4092 24.8527 22.2775 24.7905 22.1606 24.7038C22.0438 24.617 21.9449 24.5166 21.8636 24.4021C21.7824 24.2888 21.7198 24.1637 21.6765 24.0281C21.6331 23.8925 21.6112 23.7569 21.6112 23.6213Z" fill="white"/>
<path d="M20.8222 15.8828L20.5045 15.1157L32.4755 10.1571L32.7932 10.9242L20.8222 15.8828Z" fill="#007FB0"/>
<path d="M20.0645 14.4568L19.4775 13.8699L28.6397 4.70731L29.227 5.29465L20.0645 14.4568Z" fill="#007FB0"/>
<path d="M18.8187 13.4299L18.0516 13.1122L23.0102 1.14069L23.7772 1.45878L18.8187 13.4299Z" fill="#007FB0"/>
<path d="M17.2747 12.9574H16.4443V0H17.2747V12.9574Z" fill="#007FB0"/>
<path d="M14.9004 13.4299L9.94177 1.45878L10.7089 1.14069L15.6674 13.1122L14.9004 13.4299Z" fill="#007FB0"/>
<path d="M13.6545 14.4568L4.49237 5.29465L5.07971 4.70731L14.2419 13.8699L13.6545 14.4568Z" fill="#007FB0"/>
<path d="M12.8968 15.8828L0.92572 10.9242L1.24342 10.1571L13.2145 15.1157L12.8968 15.8828Z" fill="#007FB0"/>
<path d="M10.7425 50.8394L10.9152 52.1344L12.2005 51.8984C12.2005 51.8984 12.2138 50.6366 12.3756 50.1247C11.9387 50.4369 10.7425 50.8394 10.7425 50.8394Z" fill="#BE1622"/>
<path d="M8.43924 40.2775L7.26105 40.8414L7.88278 41.991C7.88278 41.991 9.08676 41.6139 9.62408 41.6092C9.19149 41.2904 8.43924 40.2775 8.43924 40.2775Z" fill="#BE1622"/>
<path d="M15.9465 34.8241L16.8472 33.8777L17.748 34.8241C17.748 34.8241 17.0172 35.8531 16.8472 36.3623C16.6772 35.8531 15.9465 34.8241 15.9465 34.8241Z" fill="#BE1622"/>
<path d="M25.2802 40.2775L26.4588 40.8414L25.837 41.991C25.837 41.991 24.6327 41.6139 24.0953 41.6092H24.0957H24.0953C24.5275 41.2904 25.2802 40.2775 25.2802 40.2775Z" fill="#BE1622"/>
<path d="M22.9766 50.8394L22.8038 52.1344L21.519 51.8984C21.519 51.8984 21.5053 50.6366 21.3435 50.1247C21.7804 50.4369 22.9766 50.8394 22.9766 50.8394Z" fill="#BE1622"/>
<path d="M17.4041 40.399C18.5803 40.5768 19.5698 41.3216 20.0876 42.3458L22.6147 41.6366C22.6147 41.6366 23.6018 41.3869 24.0512 40.5662C24.5127 39.7226 24.1989 38.9949 23.6401 38.5147C23.0829 38.0356 22.0137 37.9164 21.1188 38.1047L21.1157 38.109L21.1184 38.1047C21.0215 37.1954 20.578 36.2157 19.95 35.8335C19.3205 35.4506 18.5315 35.3771 17.8718 36.0766C17.2298 36.7577 17.2978 37.7734 17.2978 37.7734L17.4041 40.399Z" fill="#BE1622"/>
<path d="M11.1043 41.6366L13.6315 42.3458C14.1492 41.3216 15.1387 40.5768 16.3149 40.399L16.4212 37.7734C16.4212 37.7734 16.4892 36.7577 15.8472 36.0766C15.1875 35.3771 14.399 35.4506 13.769 35.8335C13.1414 36.2157 12.6975 37.1954 12.6006 38.1047L12.6037 38.109L12.6002 38.1047C11.7053 37.9164 10.6365 38.0356 10.0789 38.5147C9.52009 38.9949 9.20669 39.7226 9.66781 40.5662C10.1172 41.3869 11.1043 41.6366 11.1043 41.6366Z" fill="#BE1622"/>
<path d="M18.5213 47.1841C18.0238 47.4424 17.4588 47.5889 16.8597 47.5889C16.2626 47.5889 15.7003 47.4435 15.204 47.1876L13.578 49.245C13.578 49.245 12.9258 50.027 13.0449 50.9554C13.1673 51.9093 13.8488 52.3134 14.583 52.3732C15.3158 52.4338 16.2509 51.9015 16.8636 51.2231L16.864 51.2177V51.2231C17.4771 51.9015 18.4123 52.4338 19.1446 52.3732C19.8793 52.3134 20.5604 51.9093 20.6827 50.9554C20.8019 50.027 20.1497 49.245 20.1497 49.245L18.5213 47.1841Z" fill="#BE1622"/>
<path d="M24.6819 42.4959C23.8355 42.0957 22.891 42.474 22.891 42.474L20.4268 43.3861C20.458 43.5776 20.4748 43.7737 20.4748 43.9734C20.4748 44.9777 20.0653 45.8859 19.4045 46.5412L20.8597 48.7241C20.8597 48.7241 21.4017 49.5862 22.3216 49.7597C23.2665 49.9379 23.8613 49.415 24.1454 48.735C24.4291 48.0567 24.2122 47.0031 23.7562 46.2106L23.7511 46.2087L23.7562 46.2102C24.5913 45.837 25.3857 45.1118 25.5549 44.3966C25.7249 43.6796 25.551 42.907 24.6819 42.4959Z" fill="#BE1622"/>
<path d="M13.2442 43.9738C13.2442 43.7737 13.261 43.5772 13.2927 43.3865L10.8284 42.4744C10.8284 42.4744 9.88315 42.0957 9.03712 42.4963C8.16803 42.9074 7.99413 43.68 8.16411 44.397C8.33332 45.1122 9.12816 45.8374 9.96286 46.2106L9.96794 46.2091L9.96286 46.211C9.50722 47.0031 9.28995 48.0571 9.57326 48.7354C9.85775 49.415 10.4525 49.9383 11.3974 49.7601C12.3173 49.5862 12.8593 48.7245 12.8593 48.7245L14.3146 46.5412C13.6538 45.8863 13.2442 44.9777 13.2442 43.9738Z" fill="#BE1622"/>
<path d="M14.0027 43.9738C14.0027 42.3959 15.2818 41.1169 16.8597 41.1169C18.4377 41.1169 19.7167 42.3959 19.7167 43.9738C19.7167 45.5518 18.4377 46.8312 16.8597 46.8312C15.2818 46.8312 14.0027 45.5518 14.0027 43.9738Z" fill="#BE1622"/>
<path d="M51.9172 24.8163C51.9172 25.542 51.7921 26.1973 51.5428 26.7812C51.2931 27.3658 50.9527 27.8617 50.5221 28.27C50.0907 28.6784 49.5803 28.9934 48.9906 29.2145C48.401 29.4357 47.7601 29.5463 47.068 29.5463C46.3759 29.5463 45.7351 29.4357 45.1454 29.2145C44.5557 28.9934 44.0422 28.6784 43.6057 28.27C43.1688 27.8617 42.8285 27.3658 42.585 26.7812C42.3408 26.1973 42.2192 25.542 42.2192 24.8163V17.1938H44.3626V24.7483C44.3626 25.0434 44.408 25.3521 44.499 25.6757C44.5897 25.9988 44.7398 26.2966 44.9496 26.5686C45.1594 26.8409 45.4373 27.0649 45.7835 27.2407C46.1294 27.4169 46.5576 27.5045 47.068 27.5045C47.5784 27.5045 48.0067 27.4169 48.3525 27.2407C48.6983 27.0649 48.9766 26.8409 49.1864 26.5686C49.3959 26.2966 49.5463 25.9988 49.6374 25.6757C49.7276 25.3521 49.7734 25.0434 49.7734 24.7483V17.1938H51.9172V24.8163Z" fill="#007FB0"/>
<path d="M54.1524 21.0735H56.0918V22.3833H56.1258C56.3189 21.9754 56.6135 21.6206 57.0109 21.32C57.4084 21.0195 57.9465 20.8695 58.6272 20.8695C59.172 20.8695 59.6335 20.9601 60.0137 21.1415C60.3935 21.3232 60.703 21.5611 60.941 21.8558C61.1798 22.1512 61.3494 22.4912 61.4517 22.8769C61.5537 23.2626 61.6045 23.6655 61.6045 24.0848V29.2403H59.5627V25.1055C59.5627 24.8785 59.5514 24.626 59.5291 24.3482C59.5061 24.0703 59.4467 23.8101 59.3505 23.5658C59.2536 23.322 59.1036 23.118 58.8992 22.9531C58.6952 22.7894 58.4174 22.7069 58.0657 22.7069C57.7253 22.7069 57.4388 22.7632 57.2063 22.8769C56.9738 22.9902 56.7812 23.1434 56.628 23.3365C56.4752 23.5291 56.3642 23.7503 56.2962 23.9992C56.2282 24.2493 56.1942 24.5104 56.1942 24.7823V29.2403H54.1524V21.0735Z" fill="#007FB0"/>
<path d="M63.755 21.0731H65.7968V29.2399H63.755V21.0731ZM63.4658 18.2997C63.4658 17.9711 63.5877 17.6846 63.832 17.4408C64.0754 17.1969 64.3849 17.075 64.7593 17.075C65.1337 17.075 65.4482 17.1911 65.7034 17.4236C65.9586 17.6561 66.0864 17.9484 66.0864 18.2997C66.0864 18.6514 65.9586 18.9437 65.7034 19.1762C65.4482 19.4087 65.1337 19.5252 64.7593 19.5252C64.3849 19.5252 64.0754 19.4033 63.832 19.159C63.5877 18.9152 63.4658 18.6291 63.4658 18.2997Z" fill="#007FB0"/>
<path d="M66.9574 21.0731H69.186L71.3638 26.7897H71.3982L73.5928 21.0731H75.6854L72.4697 29.2403H70.2923L66.9574 21.0731Z" fill="#007FB0"/>
<path d="M82.2786 24.34C82.2673 23.7386 82.0801 23.2653 81.7175 22.9191C81.354 22.5733 80.8495 22.4001 80.2028 22.4001C79.5905 22.4001 79.1055 22.5764 78.7483 22.9277C78.3912 23.2794 78.1723 23.7503 78.0934 24.34H82.2786ZM78.0934 25.871C78.1614 26.4838 78.3994 26.9601 78.8077 27.3005C79.2161 27.6409 79.7096 27.8109 80.2884 27.8109C80.7984 27.8109 81.2266 27.7061 81.5729 27.4963C81.9187 27.2864 82.222 27.0227 82.483 26.7049L83.9465 27.8109C83.4697 28.4009 82.9367 28.8206 82.3466 29.0699C81.7569 29.3193 81.1387 29.4443 80.4924 29.4443C79.88 29.4443 79.3013 29.3419 78.7569 29.1379C78.2122 28.9339 77.7417 28.6444 77.3447 28.2704C76.9476 27.896 76.6327 27.4451 76.4005 26.9175C76.1676 26.39 76.0516 25.803 76.0516 25.1567C76.0516 24.5104 76.1676 23.923 76.4005 23.3955C76.6327 22.8683 76.9476 22.4173 77.3447 22.043C77.7417 21.6686 78.2122 21.3794 78.7569 21.1751C79.3013 20.9711 79.88 20.8691 80.4924 20.8691C81.0594 20.8691 81.5783 20.9687 82.0488 21.1669C82.5197 21.3654 82.9226 21.6518 83.2567 22.0262C83.5912 22.4001 83.8523 22.8628 84.0395 23.4127C84.2266 23.9629 84.3208 24.5951 84.3208 25.3099V25.871H78.0934Z" fill="#007FB0"/>
<path d="M86.0817 21.0735H88.1235V22.3665H88.1571C88.3837 21.8898 88.7069 21.5213 89.1266 21.2606C89.5467 21 90.0285 20.8695 90.5729 20.8695C90.6975 20.8695 90.8199 20.8804 90.9387 20.9031C91.0578 20.9261 91.1794 20.9543 91.3052 20.9879V22.9617C91.1348 22.9164 90.9668 22.88 90.803 22.8507C90.6385 22.8234 90.4767 22.8085 90.3181 22.8085C89.8417 22.8085 89.4592 22.8968 89.1696 23.0727C88.88 23.2481 88.6592 23.4498 88.5061 23.676C88.3525 23.9035 88.2505 24.1301 88.1993 24.3572C88.1489 24.5838 88.1235 24.7538 88.1235 24.8675V29.2403H86.0817V21.0735Z" fill="#007FB0"/>
<path d="M97.1458 23.3361C96.7483 22.7804 96.2157 22.5025 95.5463 22.5025C95.2743 22.5025 95.0074 22.5705 94.7468 22.7065C94.4857 22.8425 94.3552 23.0641 94.3552 23.3701C94.3552 23.6198 94.4631 23.8015 94.6788 23.9144C94.8941 24.0281 95.1665 24.1247 95.4955 24.2036C95.8241 24.2833 96.1786 24.3654 96.5588 24.4506C96.9386 24.5354 97.2931 24.6663 97.6221 24.8417C97.9512 25.018 98.2231 25.2587 98.4392 25.5651C98.6542 25.871 98.762 26.2911 98.762 26.8241C98.762 27.3118 98.6573 27.7233 98.4474 28.0574C98.2376 28.3923 97.9652 28.6616 97.6303 28.8656C97.2962 29.0699 96.9187 29.2173 96.4994 29.3083C96.0793 29.399 95.6596 29.4443 95.2403 29.4443C94.6049 29.4443 94.0211 29.3533 93.4877 29.1719C92.9543 28.9906 92.4783 28.6616 92.0582 28.1852L93.4197 26.9089C93.6803 27.204 93.9613 27.4451 94.2618 27.6323C94.5623 27.8195 94.9281 27.9128 95.3595 27.9128C95.5068 27.9128 95.6596 27.8961 95.8187 27.8621C95.9777 27.8281 96.1251 27.7714 96.261 27.6917C96.3974 27.6123 96.5076 27.5131 96.5928 27.3939C96.678 27.2751 96.7202 27.136 96.7202 26.9769C96.7202 26.6936 96.6124 26.4838 96.3974 26.3478C96.1813 26.2114 95.9093 26.1008 95.5803 26.0156C95.2513 25.9308 94.8968 25.8515 94.517 25.7776C94.1372 25.7042 93.7827 25.585 93.4537 25.4201C93.1247 25.2559 92.8527 25.0266 92.637 24.7311C92.4213 24.4365 92.3138 24.0281 92.3138 23.5064C92.3138 23.0527 92.4076 22.6585 92.5948 22.3236C92.782 21.9891 93.0285 21.7143 93.3345 21.4982C93.6405 21.2833 93.9926 21.1243 94.3892 21.0223C94.7866 20.9199 95.1891 20.8691 95.5975 20.8691C96.1422 20.8691 96.6807 20.9625 97.2138 21.1497C97.7468 21.3368 98.1778 21.6577 98.5068 22.111L97.1458 23.3361Z" fill="#007FB0"/>
<path d="M100.335 21.0731H102.377V29.2399H100.335V21.0731ZM100.046 18.2997C100.046 17.9711 100.168 17.6846 100.412 17.4408C100.655 17.1969 100.964 17.075 101.339 17.075C101.713 17.075 102.029 17.1911 102.283 17.4236C102.539 17.6561 102.667 17.9484 102.667 18.2997C102.667 18.6514 102.539 18.9437 102.283 19.1762C102.029 19.4087 101.713 19.5252 101.339 19.5252C100.964 19.5252 100.655 19.4033 100.412 19.159C100.168 18.9152 100.046 18.6291 100.046 18.2997Z" fill="#007FB0"/>
<path d="M103.609 22.8085V21.0731H105.293V18.7081H107.335V21.0731H109.581V22.8085H107.335V26.3814C107.335 26.7898 107.411 27.1133 107.565 27.3513C107.718 27.5893 108.021 27.7089 108.475 27.7089C108.657 27.7089 108.855 27.689 109.071 27.6491C109.286 27.6096 109.456 27.5444 109.581 27.4533V29.172C109.365 29.2739 109.102 29.3447 108.79 29.3845C108.478 29.424 108.203 29.4439 107.964 29.4439C107.42 29.4439 106.975 29.3845 106.629 29.2653C106.283 29.1462 106.011 28.9648 105.812 28.721C105.614 28.4772 105.478 28.1739 105.404 27.8105C105.33 27.4478 105.293 27.0278 105.293 26.5518V22.8085H103.609Z" fill="#007FB0"/>
<path d="M110.382 21.0735H112.628L114.908 26.7393H114.942L116.984 21.0735H119.11L115.248 30.9926C115.101 31.3783 114.939 31.7155 114.764 32.0051C114.587 32.2942 114.381 32.5377 114.142 32.7362C113.904 32.9347 113.624 33.0824 113.3 33.179C112.977 33.2751 112.589 33.3236 112.134 33.3236C111.601 33.3236 111.08 33.2552 110.569 33.1196L110.825 31.2821C110.983 31.3384 111.15 31.3865 111.326 31.4267C111.502 31.4658 111.681 31.4861 111.862 31.4861C112.112 31.4861 112.322 31.4627 112.492 31.4181C112.662 31.372 112.807 31.3013 112.926 31.2048C113.045 31.1086 113.144 30.9844 113.224 30.8308C113.303 30.6776 113.388 30.4935 113.479 30.2782L113.87 29.3083L110.382 21.0735Z" fill="#007FB0"/>
<path d="M125.712 25.1567C125.712 25.4744 125.766 25.7808 125.873 26.0754C125.981 26.3704 126.14 26.6311 126.35 26.8581C126.56 27.0852 126.812 27.2665 127.107 27.4025C127.402 27.5389 127.737 27.6069 128.111 27.6069C128.485 27.6069 128.82 27.5389 129.115 27.4025C129.41 27.2665 129.662 27.0852 129.872 26.8581C130.082 26.6311 130.241 26.3704 130.348 26.0754C130.456 25.7808 130.51 25.4744 130.51 25.1567C130.51 24.8394 130.456 24.533 130.348 24.238C130.241 23.9433 130.082 23.6823 129.872 23.4553C129.662 23.2282 129.41 23.0469 129.115 22.9109C128.82 22.7745 128.485 22.7065 128.111 22.7065C127.737 22.7065 127.402 22.7745 127.107 22.9109C126.812 23.0469 126.56 23.2282 126.35 23.4553C126.14 23.6823 125.981 23.9433 125.873 24.238C125.766 24.533 125.712 24.8394 125.712 25.1567ZM123.67 25.1567C123.67 24.5104 123.786 23.923 124.019 23.3958C124.251 22.8683 124.566 22.4173 124.963 22.043C125.36 21.6686 125.831 21.3794 126.376 21.1755C126.92 20.9711 127.499 20.8691 128.111 20.8691C128.723 20.8691 129.302 20.9711 129.846 21.1755C130.391 21.3794 130.862 21.6686 131.259 22.043C131.655 22.4173 131.971 22.8683 132.203 23.3958C132.435 23.923 132.552 24.5104 132.552 25.1567C132.552 25.803 132.435 26.39 132.203 26.9175C131.971 27.4451 131.655 27.896 131.259 28.2704C130.862 28.6444 130.391 28.9339 129.846 29.1379C129.302 29.3419 128.723 29.4443 128.111 29.4443C127.499 29.4443 126.92 29.3419 126.376 29.1379C125.831 28.9339 125.36 28.6444 124.963 28.2704C124.566 27.896 124.251 27.4451 124.019 26.9175C123.786 26.39 123.67 25.803 123.67 25.1567Z" fill="#007FB0"/>
<path d="M135 22.8085H133.315V21.0731H135V19.916C135 19.349 135.039 18.8355 135.119 18.3763C135.198 17.9168 135.349 17.5229 135.569 17.1938C135.791 16.8652 136.1 16.6127 136.497 16.4365C136.894 16.261 137.41 16.1731 138.045 16.1731C138.51 16.1731 138.941 16.213 139.338 16.2919L139.202 18.0274C139.055 17.9934 138.913 17.9652 138.777 17.9422C138.64 17.9199 138.499 17.9082 138.351 17.9082C138.068 17.9082 137.841 17.9539 137.671 18.0446C137.501 18.1356 137.367 18.2571 137.271 18.4103C137.174 18.5635 137.112 18.7421 137.084 18.9465C137.055 19.1505 137.041 19.3658 137.041 19.5928V21.0731H138.93V22.8085H137.041V29.2399H135V22.8085Z" fill="#007FB0"/>
<path d="M50.5389 36.3775C50.0966 35.9007 49.6683 35.5834 49.2544 35.4248C48.8402 35.2661 48.4232 35.1864 48.0039 35.1864C47.3799 35.1864 46.8156 35.297 46.3111 35.5182C45.8062 35.7393 45.3724 36.0457 45.0094 36.4369C44.646 36.8284 44.3654 37.2849 44.1669 37.8066C43.9688 38.3286 43.8695 38.8898 43.8695 39.4908C43.8695 40.1379 43.9688 40.7331 44.1669 41.2774C44.3654 41.8222 44.646 42.2927 45.0094 42.6897C45.3724 43.0868 45.8062 43.3986 46.3111 43.6256C46.8156 43.8523 47.3799 43.9656 48.0039 43.9656C48.4912 43.9656 48.9652 43.8495 49.4244 43.617C49.884 43.3845 50.3119 43.0129 50.7093 42.5025L52.4783 43.7616C51.934 44.5103 51.2708 45.0551 50.4881 45.3951C49.7054 45.7354 48.8715 45.905 47.9867 45.905C47.0567 45.905 46.2028 45.755 45.4264 45.4545C44.6491 45.154 43.9797 44.7288 43.4186 44.1782C42.857 43.6284 42.4174 42.968 42.0997 42.1962C41.7824 41.4252 41.6237 40.5686 41.6237 39.6272C41.6237 38.6632 41.7824 37.7866 42.0997 36.9984C42.4174 36.2102 42.857 35.5381 43.4186 34.9824C43.9797 34.4267 44.6491 33.9984 45.4264 33.6975C46.2028 33.3974 47.0567 33.2466 47.9867 33.2466C48.8035 33.2466 49.5608 33.3912 50.2583 33.6807C50.9559 33.9699 51.605 34.4607 52.2064 35.1524L50.5389 36.3775Z" fill="#007FB0"/>
<path d="M59.4256 40.6991C59.4138 40.0981 59.2266 39.6245 58.864 39.2782C58.501 38.9324 57.9961 38.7593 57.3497 38.7593C56.7374 38.7593 56.252 38.9351 55.8949 39.2868C55.5377 39.6385 55.3193 40.1094 55.2399 40.6991H59.4256ZM55.2399 42.2302C55.3079 42.8429 55.5463 43.3189 55.9547 43.6592C56.363 43.9996 56.8562 44.17 57.4349 44.17C57.9453 44.17 58.3732 44.0649 58.7194 43.855C59.0653 43.6452 59.3685 43.3814 59.6295 43.0641L61.093 44.17C60.6163 44.7601 60.0832 45.1797 59.4935 45.4291C58.9035 45.678 58.2856 45.8034 57.6389 45.8034C57.0262 45.8034 56.4478 45.7014 55.9035 45.4967C55.3591 45.2931 54.8882 45.0035 54.4916 44.6291C54.0942 44.2552 53.7792 43.8038 53.5471 43.2767C53.3142 42.7491 53.1981 42.1622 53.1981 41.5154C53.1981 40.8691 53.3142 40.2825 53.5471 39.755C53.7792 39.227 54.0942 38.7765 54.4916 38.4021C54.8882 38.0277 55.3591 37.7386 55.9035 37.5342C56.4478 37.3302 57.0262 37.2282 57.6389 37.2282C58.2059 37.2282 58.7249 37.3275 59.1958 37.526C59.6663 37.7245 60.0688 38.0109 60.4037 38.3849C60.7382 38.7593 60.9992 39.222 61.1864 39.7718C61.3736 40.322 61.467 40.9543 61.467 41.6686V42.2302H55.2399Z" fill="#007FB0"/>
<path d="M63.2282 37.4322H65.1676V38.7421H65.2016C65.3943 38.3341 65.6893 37.9797 66.0864 37.6788C66.4834 37.3787 67.0223 37.2282 67.7026 37.2282C68.2474 37.2282 68.7093 37.3189 69.0895 37.5002C69.4693 37.6819 69.7788 37.9203 70.0168 38.2145C70.2548 38.51 70.4252 38.8499 70.5272 39.236C70.6292 39.6213 70.6804 40.0242 70.6804 40.4439V45.5991H68.6385V41.4646C68.6385 41.238 68.6272 40.9851 68.6045 40.7073C68.5819 40.4295 68.5221 40.1688 68.4259 39.9246C68.3294 39.6811 68.1794 39.4767 67.975 39.3122C67.771 39.1481 67.4928 39.0656 67.1415 39.0656C66.8011 39.0656 66.5143 39.1223 66.2821 39.236C66.0496 39.3494 65.857 39.5021 65.7034 39.6952C65.5506 39.8882 65.44 40.1094 65.3716 40.3587C65.304 40.6084 65.27 40.8687 65.27 41.1415V45.5991H63.2282V37.4322Z" fill="#007FB0"/>
<path d="M71.8421 39.1676V37.4322H73.5264V35.0672H75.5682V37.4322H77.814V39.1676H75.5682V42.7409C75.5682 43.1489 75.6448 43.4724 75.798 43.7104C75.9511 43.9484 76.2544 44.0676 76.7085 44.0676C76.8898 44.0676 77.0879 44.0481 77.304 44.0086C77.5189 43.9687 77.6889 43.9035 77.814 43.8128V45.5307C77.5987 45.633 77.3345 45.7042 77.023 45.7436C76.7108 45.7835 76.4361 45.803 76.1977 45.803C75.6534 45.803 75.2079 45.7436 74.8624 45.6244C74.5162 45.5056 74.2438 45.3243 74.0453 45.0801C73.8468 44.8366 73.7108 44.533 73.637 44.17C73.5631 43.8069 73.5264 43.3872 73.5264 42.9109V39.1676H71.8421Z" fill="#007FB0"/>
<path d="M79.3931 37.4322H81.4346V38.7253H81.4689C81.6956 38.2489 82.0188 37.8804 82.4385 37.6194C82.8582 37.3587 83.3404 37.2282 83.8847 37.2282C84.0094 37.2282 84.1313 37.2392 84.2505 37.2618C84.3697 37.2849 84.4912 37.313 84.6167 37.347V39.3208C84.4463 39.2755 84.2786 39.2388 84.1145 39.2098C83.95 39.1821 83.7886 39.1676 83.6296 39.1676C83.1532 39.1676 82.7706 39.256 82.4811 39.4314C82.1919 39.6073 81.9707 39.8089 81.8175 40.0356C81.6643 40.2626 81.562 40.4892 81.5112 40.7159C81.4603 40.9429 81.4346 41.1129 81.4346 41.2263V45.5991H79.3931V37.4322Z" fill="#007FB0"/>
<path d="M90.8437 41.941H90.4185C90.1344 41.941 89.8171 41.9519 89.4658 41.975C89.1137 41.9977 88.7823 42.0512 88.4701 42.1364C88.1579 42.2216 87.8945 42.3462 87.6788 42.5107C87.4635 42.6753 87.356 42.905 87.356 43.1997C87.356 43.3927 87.3986 43.5545 87.4834 43.6846C87.5686 43.8155 87.6788 43.9257 87.8152 44.0168C87.9511 44.1075 88.1043 44.1727 88.2747 44.2122C88.4443 44.252 88.6147 44.272 88.7851 44.272C89.4881 44.272 90.007 44.1043 90.3419 43.7698C90.676 43.4349 90.8437 42.9785 90.8437 42.4001V41.941ZM90.9625 44.4756H90.9117C90.6166 44.941 90.2423 45.2782 89.7886 45.4881C89.3349 45.6979 88.8359 45.803 88.2915 45.803C87.9171 45.803 87.5514 45.7518 87.1942 45.6495C86.837 45.5479 86.5189 45.3947 86.2415 45.1903C85.9633 44.9863 85.7394 44.7311 85.5694 44.4248C85.3994 44.1184 85.3142 43.7612 85.3142 43.3529C85.3142 42.9105 85.3935 42.5334 85.5522 42.2216C85.7108 41.9097 85.9238 41.6491 86.1903 41.4388C86.4568 41.2294 86.7659 41.0617 87.1176 40.9371C87.4689 40.812 87.8347 40.7186 88.2149 40.6565C88.5952 40.594 88.9777 40.5541 89.3634 40.5373C89.7487 40.5201 90.1121 40.5115 90.4525 40.5115H90.9625V40.2903C90.9625 39.7804 90.7866 39.397 90.4353 39.1418C90.0836 38.8867 89.6358 38.7589 89.0914 38.7589C88.66 38.7589 88.2575 38.8355 87.8832 38.9887C87.5092 39.1418 87.1856 39.349 86.9132 39.6096L85.8413 38.5381C86.2946 38.0731 86.8257 37.7382 87.4326 37.5342C88.0391 37.3298 88.6659 37.2278 89.3126 37.2278C89.891 37.2278 90.3787 37.2931 90.7757 37.4232C91.1723 37.5537 91.5014 37.7214 91.7628 37.9254C92.0234 38.1297 92.2243 38.3654 92.3665 38.6315C92.5084 38.8984 92.6104 39.1672 92.6729 39.44C92.735 39.712 92.7722 39.9758 92.7835 40.2309C92.7945 40.4857 92.8003 40.7104 92.8003 40.9031V45.5987H90.9625V44.4756Z" fill="#007FB0"/>
<path d="M94.9234 32.7362H96.9652V45.5991H94.9234V32.7362Z" fill="#007FB0"/>
<path d="M104.536 33.5529H106.68V43.6592H111.801V45.5991H104.536V33.5529Z" fill="#007FB0"/>
<path d="M118.277 41.941H117.852C117.568 41.941 117.25 41.9519 116.899 41.975C116.547 41.9977 116.215 42.0512 115.903 42.1364C115.591 42.2216 115.327 42.3462 115.112 42.5107C114.896 42.6753 114.789 42.905 114.789 43.1997C114.789 43.3927 114.832 43.5545 114.916 43.6846C115.002 43.8155 115.112 43.9257 115.248 44.0168C115.385 44.1075 115.537 44.1727 115.708 44.2122C115.877 44.252 116.048 44.272 116.218 44.272C116.921 44.272 117.44 44.1043 117.775 43.7698C118.109 43.4349 118.277 42.9785 118.277 42.4001V41.941ZM118.396 44.4756H118.345C118.05 44.941 117.675 45.2782 117.222 45.4881C116.768 45.6979 116.269 45.803 115.725 45.803C115.35 45.803 114.984 45.7518 114.627 45.6495C114.27 45.5479 113.952 45.3947 113.674 45.1903C113.397 44.9863 113.172 44.7311 113.002 44.4248C112.832 44.1184 112.747 43.7612 112.747 43.3529C112.747 42.9105 112.826 42.5334 112.986 42.2216C113.144 41.9097 113.357 41.6491 113.624 41.4388C113.89 41.2294 114.199 41.0617 114.551 40.9371C114.902 40.812 115.268 40.7186 115.648 40.6565C116.028 40.594 116.411 40.5541 116.796 40.5373C117.182 40.5201 117.545 40.5115 117.886 40.5115H118.396V40.2903C118.396 39.7804 118.22 39.397 117.868 39.1418C117.517 38.8867 117.069 38.7589 116.524 38.7589C116.093 38.7589 115.691 38.8355 115.317 38.9887C114.942 39.1418 114.619 39.349 114.346 39.6096L113.274 38.5381C113.728 38.0731 114.259 37.7382 114.866 37.5342C115.472 37.3298 116.099 37.2278 116.746 37.2278C117.324 37.2278 117.812 37.2931 118.208 37.4232C118.606 37.5537 118.935 37.7214 119.196 37.9254C119.456 38.1297 119.657 38.3654 119.8 38.6315C119.941 38.8984 120.043 39.1672 120.106 39.44C120.168 39.712 120.205 39.9758 120.216 40.2309C120.227 40.4857 120.233 40.7104 120.233 40.9031V45.5987H118.396V44.4756Z" fill="#007FB0"/>
<path d="M122.338 37.4322H124.277V38.7421H124.311C124.504 38.3341 124.799 37.9797 125.196 37.6788C125.593 37.3787 126.132 37.2282 126.813 37.2282C127.357 37.2282 127.819 37.3189 128.199 37.5002C128.58 37.6819 128.889 37.9203 129.127 38.2145C129.365 38.51 129.535 38.8499 129.637 39.236C129.739 39.6213 129.79 40.0242 129.79 40.4439V45.5991H127.749V41.4646C127.749 41.238 127.737 40.9851 127.715 40.7073C127.691 40.4295 127.632 40.1688 127.536 39.9246C127.439 39.6811 127.289 39.4767 127.085 39.3122C126.881 39.1481 126.603 39.0656 126.251 39.0656C125.911 39.0656 125.624 39.1223 125.392 39.236C125.159 39.3494 124.967 39.5021 124.814 39.6952C124.66 39.8882 124.55 40.1094 124.482 40.3587C124.414 40.6084 124.38 40.8687 124.38 41.1415V45.5991H122.338V37.4322Z" fill="#007FB0"/>
<path d="M137.479 39.8824C137.241 39.6327 136.991 39.4345 136.73 39.2868C136.469 39.1395 136.202 39.0656 135.93 39.0656C135.556 39.0656 135.221 39.1336 134.927 39.27C134.631 39.4056 134.379 39.5873 134.169 39.814C133.959 40.041 133.8 40.3017 133.693 40.5967C133.585 40.8921 133.531 41.1981 133.531 41.5154C133.531 41.8331 133.585 42.1395 133.693 42.4341C133.8 42.7296 133.959 42.9902 134.169 43.2169C134.379 43.4439 134.631 43.6256 134.927 43.7616C135.221 43.8976 135.556 43.9656 135.93 43.9656C136.248 43.9656 136.542 43.9003 136.815 43.7698C137.087 43.6397 137.32 43.4498 137.513 43.1997L138.873 44.6631C138.67 44.8675 138.434 45.0434 138.168 45.1907C137.901 45.3384 137.632 45.4576 137.359 45.5482C137.087 45.6385 136.826 45.7038 136.577 45.7436C136.327 45.7835 136.112 45.803 135.93 45.803C135.318 45.803 134.739 45.7014 134.195 45.4967C133.65 45.2931 133.18 45.0031 132.782 44.6288C132.386 44.2548 132.07 43.8038 131.838 43.2767C131.606 42.7491 131.49 42.1622 131.49 41.5154C131.49 40.8687 131.606 40.2821 131.838 39.755C132.07 39.227 132.386 38.7765 132.782 38.4021C133.18 38.0273 133.65 37.7386 134.195 37.5342C134.739 37.3302 135.318 37.2282 135.93 37.2282C136.452 37.2282 136.977 37.3275 137.504 37.526C138.032 37.7245 138.494 38.0391 138.891 38.4701L137.479 39.8824Z" fill="#007FB0"/>
<path d="M145.174 41.941H144.749C144.465 41.941 144.147 41.9519 143.796 41.975C143.444 41.9977 143.113 42.0512 142.801 42.1364C142.488 42.2216 142.225 42.3462 142.009 42.5107C141.794 42.6753 141.686 42.905 141.686 43.1997C141.686 43.3927 141.729 43.5545 141.814 43.6846C141.899 43.8155 142.009 43.9257 142.145 44.0168C142.282 44.1075 142.435 44.1727 142.605 44.2122C142.775 44.252 142.945 44.272 143.115 44.272C143.818 44.272 144.337 44.1043 144.672 43.7698C145.006 43.4349 145.174 42.9785 145.174 42.4001V41.941ZM145.293 44.4756H145.242C144.947 44.941 144.572 45.2782 144.119 45.4881C143.666 45.6979 143.166 45.803 142.622 45.803C142.247 45.803 141.882 45.7518 141.524 45.6495C141.167 45.5479 140.85 45.3947 140.572 45.1903C140.294 44.9863 140.07 44.7311 139.9 44.4248C139.73 44.1184 139.644 43.7612 139.644 43.3529C139.644 42.9105 139.724 42.5334 139.883 42.2216C140.041 41.9097 140.254 41.6491 140.521 41.4388C140.787 41.2294 141.096 41.0617 141.448 40.9371C141.799 40.812 142.165 40.7186 142.545 40.6565C142.925 40.594 143.308 40.5541 143.694 40.5373C144.079 40.5201 144.442 40.5115 144.783 40.5115H145.293V40.2903C145.293 39.7804 145.117 39.397 144.766 39.1418C144.414 38.8867 143.966 38.7589 143.422 38.7589C142.99 38.7589 142.588 38.8355 142.214 38.9887C141.839 39.1418 141.516 39.349 141.243 39.6096L140.172 38.5381C140.625 38.0731 141.156 37.7382 141.763 37.5342C142.369 37.3298 142.996 37.2278 143.643 37.2278C144.221 37.2278 144.709 37.2931 145.106 37.4232C145.503 37.5537 145.832 37.7214 146.093 37.9254C146.354 38.1297 146.554 38.3654 146.697 38.6315C146.839 38.8984 146.941 39.1672 147.003 39.44C147.065 39.712 147.102 39.9758 147.114 40.2309C147.125 40.4857 147.131 40.7104 147.131 40.9031V45.5987H145.293V44.4756Z" fill="#007FB0"/>
<path d="M153.633 39.6948C153.236 39.1391 152.703 38.8613 152.034 38.8613C151.762 38.8613 151.495 38.9293 151.234 39.0656C150.973 39.2012 150.843 39.4228 150.843 39.7288C150.843 39.9789 150.951 40.1602 151.166 40.2735C151.381 40.3869 151.654 40.4834 151.983 40.5627C152.311 40.642 152.666 40.7241 153.047 40.8097C153.426 40.8941 153.781 41.0246 154.11 41.2008C154.439 41.3767 154.711 41.6174 154.927 41.9234C155.142 42.2298 155.25 42.6499 155.25 43.1829C155.25 43.671 155.145 44.0821 154.935 44.4166C154.725 44.7507 154.453 45.0203 154.118 45.2243C153.784 45.4287 153.406 45.576 152.987 45.6667C152.567 45.7577 152.147 45.803 151.728 45.803C151.092 45.803 150.508 45.712 149.975 45.5307C149.442 45.3493 148.966 45.0203 148.546 44.544L149.907 43.2681C150.168 43.5627 150.449 43.8038 150.75 43.991C151.05 44.1782 151.416 44.272 151.847 44.272C151.994 44.272 152.147 44.2548 152.306 44.2204C152.465 44.1864 152.612 44.1301 152.748 44.0504C152.885 43.9715 152.995 43.8718 153.08 43.753C153.166 43.6338 153.208 43.4951 153.208 43.3357C153.208 43.0524 153.1 42.8429 152.885 42.7065C152.669 42.5701 152.397 42.4599 152.068 42.3744C151.739 42.2896 151.385 42.2102 151.005 42.1364C150.625 42.0629 150.27 41.9437 149.941 41.7788C149.612 41.6147 149.34 41.3849 149.125 41.0899C148.909 40.7948 148.801 40.3869 148.801 39.8652C148.801 39.4115 148.895 39.0172 149.082 38.6823C149.269 38.3482 149.516 38.0731 149.822 37.8574C150.128 37.642 150.48 37.483 150.877 37.381C151.274 37.279 151.677 37.2278 152.085 37.2278C152.63 37.2278 153.168 37.3212 153.701 37.5084C154.234 37.6956 154.665 38.0164 154.995 38.4697L153.633 39.6948Z" fill="#007FB0"/>
<path d="M158.872 38.5717H158.906C159.064 38.2317 159.345 37.9226 159.748 37.6444C160.15 37.3669 160.669 37.2278 161.305 37.2278C161.849 37.2278 162.311 37.3189 162.691 37.4998C163.072 37.6815 163.381 37.9199 163.619 38.2145C163.857 38.51 164.027 38.8499 164.129 39.2356C164.231 39.6213 164.283 40.0242 164.283 40.4435V45.5987H162.241V41.4643C162.241 41.2376 162.229 40.9852 162.207 40.7073C162.184 40.4295 162.124 40.1688 162.028 39.9246C161.931 39.6811 161.781 39.4764 161.577 39.3122C161.373 39.1481 161.095 39.0657 160.743 39.0657C160.403 39.0657 160.116 39.1219 159.884 39.2356C159.651 39.349 159.459 39.5022 159.306 39.6948C159.152 39.8879 159.042 40.1094 158.974 40.3584C158.906 40.6085 158.872 40.8687 158.872 41.1411V45.5987H156.83V32.7358H158.872V38.5717Z" fill="#007FB0"/>
<path d="M166.433 37.4322H168.474V45.5991H166.433V37.4322ZM166.143 34.6589C166.143 34.3298 166.265 34.0434 166.509 33.7995C166.753 33.5557 167.062 33.4338 167.436 33.4338C167.81 33.4338 168.126 33.5502 168.381 33.7823C168.636 34.0153 168.764 34.3072 168.764 34.6589C168.764 35.0106 168.636 35.3029 168.381 35.535C168.126 35.7679 167.81 35.8839 167.436 35.8839C167.062 35.8839 166.753 35.762 166.509 35.5178C166.265 35.2743 166.143 34.9879 166.143 34.6589Z" fill="#007FB0"/>
<path d="M170.676 37.4322H172.717V38.7253H172.751C172.978 38.2489 173.302 37.8804 173.721 37.6194C174.141 37.3587 174.623 37.2282 175.167 37.2282C175.292 37.2282 175.414 37.2392 175.533 37.2618C175.652 37.2849 175.774 37.313 175.899 37.347V39.3208C175.729 39.2755 175.562 39.2388 175.397 39.2098C175.232 39.1821 175.071 39.1676 174.912 39.1676C174.436 39.1676 174.053 39.256 173.764 39.4314C173.474 39.6073 173.253 39.8089 173.1 40.0356C172.947 40.2626 172.845 40.4892 172.794 40.7159C172.743 40.9429 172.717 41.1129 172.717 41.2263V45.5991H170.676V37.4322Z" fill="#007FB0"/>
<path d="M182.959 40.6991C182.947 40.0981 182.76 39.6245 182.397 39.2782C182.034 38.9324 181.529 38.7593 180.883 38.7593C180.27 38.7593 179.785 38.9351 179.428 39.2868C179.071 39.6385 178.852 40.1094 178.773 40.6991H182.959ZM178.773 42.2302C178.841 42.8429 179.079 43.3189 179.488 43.6592C179.896 43.9996 180.39 44.17 180.968 44.17C181.478 44.17 181.907 44.0649 182.252 43.855C182.598 43.6452 182.902 43.3814 183.163 43.0641L184.626 44.17C184.15 44.7601 183.616 45.1797 183.027 45.4291C182.437 45.678 181.819 45.8034 181.172 45.8034C180.56 45.8034 179.981 45.7014 179.436 45.4967C178.892 45.2931 178.422 45.0035 178.024 44.6291C177.627 44.2552 177.312 43.8038 177.08 43.2767C176.847 42.7491 176.731 42.1622 176.731 41.5154C176.731 40.8691 176.847 40.2825 177.08 39.755C177.312 39.227 177.627 38.7765 178.024 38.4021C178.422 38.0277 178.892 37.7386 179.436 37.5342C179.981 37.3302 180.56 37.2282 181.172 37.2282C181.739 37.2282 182.258 37.3275 182.729 37.526C183.199 37.7245 183.602 38.0109 183.937 38.3849C184.271 38.7593 184.532 39.222 184.719 39.7718C184.907 40.322 185 40.9543 185 41.6686V42.2302H178.773Z" fill="#007FB0"/>
</g>
<defs>
<clipPath id="clip0">
<rect width="185" height="60.0465" fill="white"/>
</clipPath>
</defs>
</svg>
